<svg width="1200" height="154" viewBox="0 0 1200 154" fill="none" xmlns="http://www.w3.org/2000/svg">
<rect y="126.486" width="1200" height="3.51351" fill="#D9D9D9"/>
<g filter="url(#filter0_d_151_2)">
<path d="M0 0H1200V126.486H0V0Z" fill="black"/>
</g>
<path d="M15 7.02702H1185V115.946H15V7.02702Z" fill="black"/>
<path d="M4.01674 11C4.01674 8.79086 5.8076 7 8.01674 7H566.017C568.226 7 570.017 8.79086 570.017 11V111.919C570.017 114.128 568.226 115.919 566.017 115.919H8.01674C5.8076 115.919 4.01674 114.128 4.01674 111.919V11Z" fill="black"/>
<path d="M1054 7.02702H1175V112.432H1054V7.02702Z" fill="black"/>
<path d="M1199.84 97.2375C1162.34 97.2375 1162.45 108.519 1124.95 108.519C1087.46 108.519 1087.51 97.1187 1050.01 97.1187C1012.52 97.1187 1012.57 108.519 975.074 108.519C937.578 108.519 937.577 97.1187 900.081 97.1187C862.584 97.1187 862.584 108.519 825.088 108.519C787.591 108.519 787.591 97.1187 750.094 97.1187C712.598 97.1187 712.598 108.519 675.101 108.519C637.604 108.519 637.604 97.1187 600.108 97.1187C562.611 97.1187 562.611 108.519 525.115 108.519C487.726 108.4 487.726 97 450.229 97C412.732 97 412.732 108.4 375.236 108.4C337.793 108.4 337.793 97 300.296 97C262.8 97 262.8 108.4 225.303 108.4C187.806 108.4 187.806 97 150.31 97C112.813 97 112.652 108.4 75.1549 108.4C37.6583 108.4 37.2273 97 0 97V154H1200L1199.84 97.2375Z" fill="white"/>
<defs>
<filter id="filter0_d_151_2" x="-6" y="-4" width="1212" height="138.486" filterUnits="userSpaceOnUse" color-interpolation-filters="sRGB">
<feFlood flood-opacity="0" result="BackgroundImageFix"/>
<feColorMatrix in="SourceAlpha" type="matrix" values="0 0 0 0 0 0 0 0 0 0 0 0 0 0 0 0 0 0 127 0" result="hardAlpha"/>
<feOffset dy="2"/>
<feGaussianBlur stdDeviation="3"/>
<feColorMatrix type="matrix" values="0 0 0 0 0 0 0 0 0 0 0 0 0 0 0 0 0 0 0.1 0"/>
<feBlend mode="normal" in2="BackgroundImageFix" result="effect1_dropShadow_151_2"/>
<feBlend mode="normal" in="SourceGraphic" in2="effect1_dropShadow_151_2" result="shape"/>
</filter>
</defs>
</svg>
