<!DOCTYPE svg PUBLIC "-//W3C//DTD SVG 1.1//EN" "http://www.w3.org/Graphics/SVG/1.1/DTD/svg11.dtd">
<!-- Uploaded to: SVG Repo, www.svgrepo.com, Transformed by: SVG Repo Mixer Tools -->
<svg width="256px" height="256px" viewBox="-2.4 -2.4 28.80 28.80" fill="none" xmlns="http://www.w3.org/2000/svg" stroke="#c81919" transform="rotate(0)">
<g id="SVGRepo_bgCarrier" stroke-width="0" transform="translate(4.32,4.32), scale(0.64)">
<rect x="-2.4" y="-2.4" width="28.80" height="28.80" rx="14.4" fill="#0C62D4" strokewidth="0"/>
</g>
<g id="SVGRepo_tracerCarrier" stroke-linecap="round" stroke-linejoin="round" stroke="#CCCCCC" stroke-width="0.192"/>
<g id="SVGRepo_iconCarrier"> <g id="User / User_Circle"> <path id="Vector" d="M17.2166 19.3323C15.9349 17.9008 14.0727 17 12 17C9.92734 17 8.06492 17.9008 6.7832 19.3323M12 21C7.02944 21 3 16.9706 3 12C3 7.02944 7.02944 3 12 3C16.9706 3 21 7.02944 21 12C21 16.9706 16.9706 21 12 21ZM12 14C10.3431 14 9 12.6569 9 11C9 9.34315 10.3431 8 12 8C13.6569 8 15 9.34315 15 11C15 12.6569 13.6569 14 12 14Z" stroke="#000000" stroke-width="0.8160000000000001" stroke-linecap="round" stroke-linejoin="round"/> </g> </g>
</svg>